<?xml version="1.0" encoding="utf-8"?>
<!-- Generator: Adobe Illustrator 16.0.0, SVG Export Plug-In . SVG Version: 6.00 Build 0)  -->
<!DOCTYPE svg PUBLIC "-//W3C//DTD SVG 1.1//EN" "http://www.w3.org/Graphics/SVG/1.1/DTD/svg11.dtd">
<svg version="1.1" id="Layer_1" xmlns="http://www.w3.org/2000/svg" xmlns:xlink="http://www.w3.org/1999/xlink" x="0px" y="0px"
	 width="202.162px" height="40px" viewBox="0 0 202.162 40" enable-background="new 0 0 202.162 40" xml:space="preserve">
<g>
	<g>
		<circle fill="#E11C5B" cx="196.798" cy="5.545" r="4.202"/>
		<circle fill="#E11C5B" cx="143.048" cy="5.545" r="4.202"/>
		<path fill="#E11C5B" d="M87.925,33.533c0,2.317-1.882,4.202-4.203,4.202c-2.321,0-4.201-1.885-4.201-4.202
			c0-2.322,1.88-4.201,4.201-4.201C86.043,29.332,87.925,31.211,87.925,33.533z"/>
	</g>
	<g>
		<path fill="#333333" d="M50.321,35.764c0,1.289-1.054,2.343-2.343,2.343h-3.692c-1.289,0-2.343-1.054-2.343-2.343V3.737
			c0-1.288,1.054-2.343,2.343-2.343h9.712c1.289,0,3.395,0.071,4.68,0.158c0,0,0.323,0.022,1.493,0.381
			c1.17,0.358,2.229,0.841,3.177,1.447c0.947,0.606,1.785,1.323,2.51,2.152c0.727,0.828,1.333,1.716,1.819,2.664
			c0.487,0.947,0.854,1.926,1.102,2.934c0.247,1.008,0.371,2.006,0.371,2.997c0,0.974-0.107,1.943-0.32,2.908
			c-0.213,0.965-0.55,1.909-1.012,2.831c-0.461,0.923-1.059,1.806-1.793,2.651c-0.734,0.847-1.623,1.637-2.664,2.37l8.392,11.337
			c0.766,1.036,0.34,1.883-0.949,1.883h-2.309c-1.289,0-2.376,0-2.419,0s-0.263-0.012-0.492-0.025c0,0,0,0-0.366-0.052
			c-0.368-0.051-0.782-0.17-1.243-0.357c-0.461-0.189-0.948-0.471-1.46-0.847c-0.512-0.375-0.999-0.896-1.46-1.562l-4.757-6.442
			c-0.765-1.036-2.424-1.884-3.684-1.884c-1.262,0-2.293,1.054-2.293,2.343V35.764z M54.435,18.508c1.289,0,2.796-0.058,3.35-0.128
			c0,0,0,0,0.479-0.256c0.478-0.256,0.9-0.589,1.268-0.999c0.367-0.411,0.663-0.875,0.884-1.396
			c0.222-0.521,0.333-1.046,0.333-1.575c0-0.53-0.111-1.055-0.333-1.576c-0.222-0.521-0.517-0.986-0.884-1.396
			c-0.367-0.41-0.79-0.743-1.268-0.999c-0.479-0.256-0.974-0.384-1.486-0.384h-4.114c-1.288,0-2.343,1.054-2.343,2.343v4.025
			c0,1.288,1.055,2.343,2.343,2.343H54.435z"/>
		<path fill="#333333" d="M121.49,6.794c0.517-1.181,1.17-2.583,1.452-3.116c0,0,0,0,0.358-0.401c0.359-0.4,0.76-0.742,1.204-1.024
			c0.444-0.282,0.927-0.495,1.447-0.64c0.521-0.146,1.063-0.219,1.627-0.219h3.089c1.288,0,1.921,0.967,1.404,2.147l-14.161,32.418
			c-0.517,1.182-1.992,2.147-3.281,2.147h-2.539c-1.288,0-2.765-0.966-3.28-2.146L94.648,3.541c-0.516-1.18,0.117-2.147,1.405-2.147
			h0.722c1.288,0,2.818,0.037,3.401,0.082c0,0,0,0,0.529,0.162c0.53,0.163,1.025,0.394,1.486,0.692
			c0.462,0.299,0.875,0.646,1.243,1.038c0.367,0.394,0.653,0.819,0.857,1.281l7.417,17.041c0.515,1.182,1.033,2.407,1.152,2.725
			c0,0,0,0,0.078,0.333c0.076,0.333,0.148,0.646,0.218,0.936c0.067,0.341,0.128,0.684,0.179,1.024
			c0.017-0.324,0.06-0.648,0.128-0.974c0.052-0.29,0.12-0.598,0.205-0.922c0.085-0.325,0.196-0.632,0.333-0.922L121.49,6.794z"/>
		<path fill="#333333" d="M185.262,38.139c1.289,0,1.921-0.967,1.404-2.147l-0.155-0.358c-0.517-1.18-1.152-2.561-1.413-3.066
			c0,0,0,0-0.319-0.391c-0.32-0.392-0.682-0.726-1.09-1c-0.408-0.275-0.851-0.491-1.328-0.648c-0.479-0.157-0.479-0.157-0.479-0.157
			c-0.562-0.042-2.075-0.077-3.363-0.078l-7.954-0.009c-1.288-0.001-2.356-0.01-2.374-0.018c-0.019-0.01,0.601-0.859,1.374-1.89
			l1.428-1.902c0.773-1.031,1.418-1.869,1.432-1.862c0.014,0.006,0.657-0.833,1.43-1.864l8.877-11.843
			c0.772-1.032,1.718-2.384,2.101-3.006c0,0,0,0,0.212-0.675c0.215-0.675,0.215-0.675,0.215-0.675
			c0.059-0.749,0.107-2.221,0.107-3.271c0-1.05-1.055-1.908-2.343-1.908h-0.159c-1.288,0-2.343-0.006-2.343-0.012
			s-1.054-0.01-2.343-0.011l-21.754-0.001c-1.289,0-1.921,0.966-1.405,2.146l0.156,0.358c0.515,1.18,1.151,2.561,1.413,3.067
			c0,0,0,0,0.319,0.392c0.319,0.391,0.682,0.725,1.09,0.999c0.407,0.277,0.85,0.492,1.328,0.648
			c0.478,0.158,0.478,0.158,0.478,0.158c0.562,0.041,2.075,0.077,3.363,0.078l7.954,0.009c1.288,0.001,2.357,0.009,2.375,0.019
			c0.018,0.008-0.601,0.859-1.374,1.888l-4.016,5.349c-0.773,1.031-1.418,1.869-1.431,1.865c-0.014-0.005-0.656,0.835-1.429,1.865
			l-6.291,8.395c-0.772,1.031-1.718,2.384-2.101,3.006c0,0,0,0-0.213,0.675c-0.214,0.675-0.214,0.675-0.214,0.675
			c-0.059,0.75-0.107,2.221-0.107,3.271s1.055,1.909,2.343,1.909h0.158c1.289,0,2.343,0.005,2.343,0.01
			c0,0.006,1.055,0.012,2.343,0.012L185.262,38.139z"/>
		<g>
			<path fill="#333333" d="M201.001,13.736c0-1.288-0.966-1.92-2.146-1.405l-0.677,0.295c-1.181,0.516-2.589,1.167-3.131,1.446
				c0,0,0,0-0.416,0.341c-0.419,0.343-0.776,0.729-1.068,1.164c-0.295,0.437-0.525,0.908-0.694,1.42
				c-0.167,0.51-0.167,0.51-0.167,0.51c-0.044,0.601-0.082,2.146-0.083,3.436l-0.001,0.131c-0.001,1.288-0.006,2.343-0.011,2.343
				s-0.009,1.054-0.009,2.343V35.8c0,1.288,1.054,2.343,2.342,2.343h3.719c1.289,0,2.343-1.055,2.343-2.343V25.759
				c0-1.289,0-2.343-0.001-2.343c0,0,0-1.055,0-2.343L201.001,13.736z"/>
		</g>
		<path fill="#333333" d="M28.941,1.369c-1.289,0.001-2.343,0-2.343,0s-1.055,0-2.342,0h-11.8c-1.289,0-2.343,0-2.343,0
			s-1.054,0.001-2.343,0H2.586c-1.289,0-1.921,0.965-1.405,2.146l0.15,0.343c0.515,1.18,1.151,2.56,1.411,3.065c0,0,0,0,0.318,0.39
			c0.319,0.39,0.68,0.722,1.086,0.995c0.407,0.276,0.848,0.49,1.324,0.646c0.477,0.158,0.477,0.158,0.477,0.158
			C6.507,9.153,7.673,9.188,8.54,9.189c0.866,0.001,1.574,0.006,1.574,0.01c0,0.005,0.022,0.009,0.048,0.009
			c0.026,0,0.048,0,0.048,0s0.133,0,0.296,0c0.163,0,1.081,0,2.041,0s1.745,1.053,1.745,2.342v24.213
			c0,1.289,1.054,2.343,2.343,2.343h3.693c1.288,0,2.342-1.054,2.342-2.343V11.551c0-1.289,0.736-2.342,1.635-2.342s1.767,0,1.931,0
			c0.163,0,0.296,0,0.296,0s0.015,0,0.033,0c0.019,0,0.034-0.004,0.034-0.009c0-0.004,0.715-0.009,1.589-0.01
			c0.874-0.001,2.046-0.036,2.607-0.077c0,0,0,0,0.476-0.158c0.477-0.157,0.917-0.371,1.324-0.646C33,8.035,33.36,7.703,33.68,7.313
			c0.318-0.39,0.318-0.39,0.318-0.39c0.261-0.505,0.896-1.885,1.412-3.065l0.15-0.343c0.516-1.18-0.116-2.146-1.405-2.146H28.941z"
			/>
		<g>
			<path fill="#333333" d="M147.25,13.736c0-1.288-0.966-1.92-2.146-1.405l-0.676,0.295c-1.181,0.516-2.59,1.167-3.131,1.446
				c0,0,0,0-0.418,0.341c-0.418,0.343-0.775,0.729-1.067,1.164c-0.295,0.437-0.525,0.908-0.693,1.42
				c-0.168,0.51-0.168,0.51-0.168,0.51c-0.045,0.601-0.083,2.146-0.084,3.436v0.131c-0.002,1.288-0.007,2.343-0.012,2.343
				c-0.004,0-0.008,1.054-0.008,2.343V35.8c0,1.288,1.054,2.343,2.342,2.343h3.719c1.289,0,2.343-1.055,2.343-2.343V25.759
				c0-1.289,0-2.343,0-2.343c-0.001,0-0.001-1.055-0.001-2.343L147.25,13.736z"/>
		</g>
		<g>
			<path fill="#333333" d="M87.926,25.751c0,1.287-0.966,1.92-2.147,1.404l-0.676-0.295c-1.181-0.517-2.589-1.167-3.131-1.446
				c0,0,0,0-0.417-0.341c-0.417-0.343-0.775-0.729-1.067-1.164c-0.295-0.438-0.525-0.908-0.693-1.42
				c-0.168-0.51-0.168-0.51-0.168-0.51c-0.044-0.601-0.082-2.146-0.084-3.435v-0.131c-0.001-1.288-0.006-2.343-0.011-2.343
				s-0.009-1.054-0.009-2.343V3.686c0-1.288,1.055-2.342,2.343-2.342h3.719c1.289,0,2.342,1.054,2.342,2.342v10.042
				c0,1.289,0,2.343-0.001,2.343c0,0,0,1.055,0,2.343L87.926,25.751z"/>
		</g>
	</g>
</g>
</svg>
